<?xml version="1.0" encoding="UTF-8" standalone="yes"?>
<svg xmlns="http://www.w3.org/2000/svg" width="100%" height="100%" viewBox="0 0 118.588 16.491" fill="#0d141a">
  <path d="M6.51 9.54L2.76 9.54L2.76 6.88L6.19 6.88Q7.27 6.88 7.85 6.32Q8.44 5.77 8.44 4.83L8.44 4.83Q8.44 3.96 7.87 3.38Q7.29 2.81 6.21 2.81L6.21 2.81L2.76 2.81L2.76 0L6.62 0Q8.23 0 9.45 0.61Q10.67 1.22 11.36 2.30Q12.05 3.38 12.05 4.78L12.05 4.78Q12.05 6.21 11.36 7.28Q10.67 8.35 9.43 8.95Q8.19 9.54 6.51 9.54L6.51 9.54ZM3.61 16.24L0 16.24L0 0L3.61 0L3.61 16.24ZM13.11 16.24L8.83 16.24L3.77 9.25L7.08 8.35L13.11 16.24ZM18.29 16.24L14.67 16.24L14.67 0L18.29 0L18.29 16.24ZM26.34 16.24L17.43 16.24L17.43 13.11L26.34 13.11L26.34 16.24ZM25.53 9.45L17.43 9.45L17.43 6.44L25.53 6.44L25.53 9.45ZM26.22 3.11L17.43 3.11L17.43 0L26.22 0L26.22 3.11ZM32.43 16.24L28.82 16.24L28.82 0L32.43 0L32.43 16.24ZM42.11 16.24L38.00 16.24L38.00 13.06L42.02 13.06Q43.49 13.06 44.60 12.48Q45.70 11.89 46.30 10.76Q46.90 9.64 46.90 8.10L46.90 8.10Q46.90 6.55 46.29 5.45Q45.68 4.35 44.59 3.75Q43.49 3.15 42.02 3.15L42.02 3.15L37.88 3.15L37.88 0L42.07 0Q43.91 0 45.46 0.59Q47.01 1.17 48.17 2.27Q49.34 3.36 49.97 4.84Q50.60 6.32 50.60 8.12L50.60 8.12Q50.60 9.89 49.97 11.38Q49.34 12.88 48.19 13.96Q47.03 15.04 45.48 15.64Q43.93 16.24 42.11 16.24L42.11 16.24ZM39.17 16.24L35.56 16.24L35.56 0L39.17 0L39.17 16.24ZM56.51 16.24L52.90 16.24L52.90 0L56.51 0L56.51 16.24ZM64.56 16.24L55.66 16.24L55.66 13.11L64.56 13.11L64.56 16.24ZM63.76 9.45L55.66 9.45L55.66 6.44L63.76 6.44L63.76 9.45ZM64.45 3.11L55.66 3.11L55.66 0L64.45 0L64.45 3.11ZM73.97 16.24L69.80 16.24L69.80 13.43L73.62 13.43Q74.68 13.43 75.28 12.81Q75.88 12.19 75.88 11.29L75.88 11.29Q75.88 10.67 75.60 10.19Q75.32 9.71 74.83 9.43Q74.34 9.15 73.62 9.15L73.62 9.15L69.80 9.15L69.80 6.42L73.32 6.42Q74.22 6.42 74.77 5.97Q75.32 5.52 75.32 4.60L75.32 4.60Q75.32 3.70 74.77 3.25Q74.22 2.81 73.32 2.81L73.32 2.81L69.80 2.81L69.80 0L74.01 0Q75.58 0 76.67 0.57Q77.76 1.15 78.34 2.12Q78.91 3.08 78.91 4.25L78.91 4.25Q78.91 5.75 77.95 6.79Q76.98 7.82 75.09 8.21L75.09 8.21L75.19 6.99Q77.23 7.38 78.35 8.58Q79.46 9.77 79.46 11.52L79.46 11.52Q79.46 12.86 78.81 13.93Q78.15 15.00 76.92 15.62Q75.69 16.24 73.97 16.24L73.97 16.24ZM70.61 16.24L67.04 16.24L67.04 0L70.61 0L70.61 16.24ZM85.40 16.24L81.79 16.24L81.79 0L85.40 0L85.40 16.24ZM92.14 16.24L88.53 16.24L88.53 0L92.14 0L92.14 16.24ZM102.21 16.24L98.58 16.24L98.58 0L102.21 0L102.21 16.24ZM99.77 9.45L90.69 9.45L90.69 6.32L99.77 6.32L99.77 9.45ZM111.85 16.49L111.85 16.49Q109.85 16.49 108.32 15.64Q106.79 14.79 105.93 13.28Q105.06 11.78 105.06 9.84L105.06 9.84L105.06 0L108.70 0L108.70 10.05Q108.70 11.02 109.11 11.73Q109.53 12.44 110.25 12.82Q110.97 13.20 111.85 13.20L111.85 13.20Q112.77 13.20 113.46 12.82Q114.15 12.44 114.55 11.74Q114.95 11.04 114.95 10.07L114.95 10.07L114.95 0L118.59 0L118.59 9.87Q118.59 11.80 117.74 13.29Q116.89 14.79 115.37 15.64Q113.85 16.49 111.85 16.49Z" preserveAspectRatio="none"/>
</svg>